<?xml version="1.0" encoding="UTF-8"?>
<svg id="OBJECTS" xmlns="http://www.w3.org/2000/svg" viewBox="0 0 313.01 78.91" preserveAspectRatio="none" fill="#2e8b57">
  <path d="m132.44,73.09c.72.4,1.26.33,1.75-.43.15-.23,1.1-1.48.98.27-.02.34.42.66.57.6.87-.35,1.78.76,2.64-.15.33-.35.76-.08,1.1.32.62.74,1.38.78,2.39.81,1.82.05,3.17-.83,4.69-1.43.29-.11.7-.4.94,0,.24.39-.25.47-.44.67-.9.94-1.93,1.76-2.58,2.93-.23.41-.73.78-1.18.74-1.46-.14-2.89.56-4.37.06-.54-.18-1.21-.07-1.81.02-.96.13-2,.69-2.4-.84-.09-.34-.59-.28-.93-.35-1.21-.23-2.51.26-3.63-.81-.35-.33-1.49.19-1.69,1.03-.24,1.07-.92,1.14-1.76,1.01-1.11-.17-2.21-.19-3.29.21-.34.13-.74.45-.93-.21-.03-.11-.35-.25-.43-.2-1.66,1.08-3.45-1.12-5.09.2-1.42-.55-2.84.51-4.1.19-1.56-.4-3.02.23-4.55-.1-1.05-.22-2.24.05-3.36.36-.52.15-1.23.57-1.66-.15-.38-.64-.11-1.34.32-1.82.84-.93.37-1.04-.52-1.03-.43,0-.99-.22-1.27-.02-1.6,1.12-3.38,1.25-5.24,1.25-1.55,0-3.1.28-4.49-.67-.92-.63-1.76.05-2.59.22-.88.17-1.5.29-2.35-.38-.78-.62-2.01-.57-3.1-.36-.93.19-1.8.37-2.52,1.14-.34.36-1.22.34-1.57-.1-.61-.77-1.18-.54-1.83-.22-1.14.57-2.3.03-3.45.04-.21,0-.54-.16-.6-.08-.91,1.18-1.86.62-2.85.13-1.67-.83-3.5-.19-5.23-.53-.3-.06-.57-.12-.84-.26-1.12-.6-2.27-.88-3.44-.13-.27.18-.63.3-.85.07-.28-.28.29-.24.3-.52.05-1.17-.82-.92-1.35-.77-.74.21-1.35.54-1.74-.48-.07-.18-.56-.32-.82-.27-1.2.22-2.35.42-3.58-.04-.59-.22-.7.86-1.27,1.11-.34-.5.07-.86.14-1.25.06-.33.38-.65.02-.95-.31-.26-.67,0-1,0-1.78,0-3.48.79-5.28.52-.32-.05-.5-.02-.53.34-.08,1.25-.62.6-1.02.22-.42-.4-.16-2.2.3-2.58.86-.69,1.47-1.72,2.69-1.94.41-.08.37-.58.3-.91-.09-.47-.54-.45-.85-.36-.83.24-1.65.54-2.46.84-.22.08-.52.14-.5.5.08,1.45-.99,1.81-2.06,2.09-.51.13-.29.54-.44.8-.42.73-.68,1.05-1.69.53-.91-.48-1.45-1.23-2.21-1.8-.23-.17-.43-.45-.51-.72-.82-2.69-1.4-3.02-4-2.18-.16.53,1.03.34.58.87-1.03,1.21-.28,3.7-2.75,3.79q.07-.61.97-1.04c-1.17-1.78-1.26-1.81-2.9-.51-.64.51-1.22,1.11-1.84,1.65-.19.17-.45.33-.72.2-.33-.15-.16-.45-.13-.69.05-.43.13-.86.19-1.29.06-.44.52-1.12-.61-.68-.35.14-1.25-.45-1.51-.92-.61-1.08-1.3-1.16-2.27-.63-.25.14-.6.49-.8.15-.21-.37-.32-.9-.23-1.31.07-.32.52-.13.81-.04,1.71.52,3.16-.61,4.77-.75.47-.04.22-.48.3-.74.14-.46-.05-.62-.48-.71-.99-.19-1.93.11-2.89.17-1.9.12-3.57,1.09-5.45,1.28-1.05.11-2.09.55-3.09.93-.53.2-1,.2-1.54.05.04-.65.77-.3.95-.81-1.49-.14-2.99-.08-4.5.09-.61.07-.62.73-1.12,1-1.02.53-2.03.87-3.26.85.94-1.19.08-1.4-.81-1.51-.75-.09-1.62-.33-2.2-.26-.99.12-.57-.67-1.04-.9-.34.59-.78,1.16-1.73.54,1.02-1.73,2.5-3.09,4.4-3.62.99-.28,1.64-1.03,2.66-1.19,2.49-.38,4.95-.9,7.41-1.42,1.28-.27,1.46-.69.92-1.68-.2-.36-.4-.59-.8-.31-.83.57-1.59-.1-2.39-.14-1.1-.06-1.18-.9-1.24-1.8-.04-.6-.55-.92-.99-.38-1.07,1.29-2.01.34-2.67-.27-.85-.78-1.93-1.35-2.53-2.42-.15-.26-.57-.49-.88-.51-.8-.04-1.23-.41-1.74-1.03-1.1-1.34-1.26-1.98-.35-3.5,1.23-2.06,3.24-3.11,5.31-4.04,1.53-.69,3.16-1.1,4.56-2.16.8-.61,1.98-.43,2.99-.26.63.1,1.16.25,1.41-.56.1-.34.37-.62.74-.68,2.19-.37,4.12-1.31,5.91-2.59.75-.54,1.57-.59,2.34-.21.63.31,1.2.07,1.79.05.27,0,.68-.13.57-.54-.08-.29-.43-.48-.75-.41-1.95.4-3.34-.32-4.28-2.04-.33-.61-.73-.91-1.58-.72-.89.19-1.75-.33-2.46-.94-.03-.02-.03-.08-.04-.12-.2-.7-1.48-.84-1.1-1.75.42-.99,1.09-1.87,2.15-2.35.5-.23.99-.48,1.5-.73-.25-.48-.72-.58-.93-.44-1.11.73-2.39-.04-3.55.48-.68.31-2.37-1.23-2.48-2.07-.14-1.06-1.53-2.09-2.6-1.9-.51.09-1.04.16-1.53.34-.86.31-1.67.6-2.05-.63-.04-.12-.13-.23-.23-.3-.12-.09-2.61.9-2.6,1.04.05.65-.48.64-.79.55-.32-.1-.9-.31-.45-.9.02-.03.04-.1.03-.12-1.43-2.19.81-2.25,1.78-2.93,1.21-.85,2.55-1.5,3.37-2.83.41-.67.39-.97-.5-1.06-1.32-.13-2.49-.82-3.72-1.27-.82-.3-.82-1.39-.19-2.52.95-1.71,2.5-2.76,4.12-3.7,2.34-1.37,4.88-2.09,7.58-2.24.3-.02.77-.07.85-.24.39-.86,1.11-.78,1.82-.77.12,0,.3-.05.36-.13,1.34-1.98,3.45-1.3,5.3-1.56,1.02-.15,1.94-.34,2.96.27.68.42,1.42-.27,1.95-.77.86-.81,1.78-.48,2.66-.22.24.07.5.32.79.28,1.22-.17,2.32-.16,3.04,1.13.27.49.83.4,1.27.06.42-.33.85-.6,1.42-.55.16.02.37,0,.48.09.26.21-.77.74.13.77.67.02,1.27-.37,1.9-.68,1.6-.77,3.23-1.9,5.12-.88.43.23.68.13,1.06.03.67-.18,1.41-.63,1.99.23.05.07.28.11.34.06,1.36-1.04,3.52.15,4.59-1.68,1.02.28,2.19.3,2.9,1.18.4.49.61.53,1.16.29.69-.31,1.48-.73,2.13.18.28.39.64.09.94-.03.36-.14.57-.42.37-.83-.16-.33-.35-.66.1-.89.44-.23.66.01.93.39.41.58,1.04.7,1.72.4.7-.32,1.46-.44,2.17-.69.74-.26,1.27-.84,1.83.3.18.37.99.12,1.41-.21.33-.26.74-.23,1.03-.38,1.67-.84,3.17.59,4.78.24.17-.04.43.1.58.23.88.78,1.76,1.07,2.95.54.45-.2,1.15.26,1.73.26.73,0,1.46-.14,2.09-.58.17-.12.45-.35.53-.29,1.91,1.19,3.31-.56,4.95-.86.61-.11,1.32-.36,1.78-.04.87.62,1.67.31,2.47.07.65-.19,1.18-.31,1.78.18.59.47,1.05-.06,1.44-.45.56-.56,1.02-.97,1.78-.15.46.5,1.28.54,1.92.26.76-.33,1.45,0,2.16-.02,1.8-.06,3.76.47,5.2-1.21.61-.71,1.11-.84,1.54.28.21.55,1.05.84,1.63.65.52-.17.92.14,1.17.26,1.36.64,2.46.62,3.21-.47.25-.37.39-.66.83-.54.46.13.62.33.19.8-.12.13.52.42.78.28.93-.52,2.04-.33,2.97-.82.31-.16.57,0,.86.12.56.22,1.21.49,1.73.04.85-.75,1.6-.23,2.34.09.31.14.53.45.91.26,1.91-.9,3.74.21,5.61.21,1.39,0,2.77-.19,3.86-1.17.47-.42.76-.52,1.33-.1.64.48,1.42.77,2.3.53.28-.08.68-.12.9.02,1.01.65,1.75.06,2.47-.49.66-.5,1.2-.68,1.73.15.25.39.71.65,1.12.51,1.43-.48,2.71.03,4.08.28,1.12.21,2.42.33,3.56-.21.44-.21.74-.15,1.06.13,1.11.99,2.26,1.28,3.77.72.68-.25,1.71.14,2.52.1,1.44-.07,2.87.32,4.34-.05.97-.24,1.76.08.96,1.36,1.16.28,2.07.06,3.07-.46,1.09-.56,2.38-.76,3.59-1.09.53-.15.73.34,1.03.63.59-1.24,1.56-1.57,2.82-1.09.65.24,1.33.6,1.97-.25.55-.73,1.36-.8,2.05-.1.61.63,1.25.63,1.84.12.65-.55,1.07-.39,1.66.11.78.65,1.72.78,2.66.21.14-.09.42-.23.45-.2.87,1.04,2.1-.32,3.01.47.1.09.47.03.6-.08,1.04-.95,1.97-.47,2.96.11,1.06.62,2.11.12,3.11-.25.48-.18.81-.1,1.3,0,1.89.41,3.6,1.37,5.57,1.55.85.08,1.16-.8,2.1-.62,1.16.22,2.38.72,3.64.32.2-.06.55.13.65-.18.42-1.29,1.44-.69,2.28-.82,2.53-.39,5.05.71,7.56,0,.57-.16.78.44,1.29.47,1.16.07,2.23.28,3.39-.42.82-.49,2.01-.1,3.03-.19.87-.07,1.78.38,2.65-.16.03-.02.1-.04.13-.02,1.17,1.03,2.8.26,4,1.02.82.52,1.54.37,2.23-.04.88-.51,1.69-.57,2.57-.06,1.16.66,2.39.68,3.65.34,1.09-.29,2.21-.07,2.98.58.71.59,1.1.42,1.55-.06.86-.91,1.77-.24,2.64-.1.4.07.49.2.74-.27.33-.61,1.08-.77,1.66-.31.69.54,1.13.98,2.17.39.75-.43,1.94-.72,2.87.05.39.33.54-.1.76-.22,1.33-.72,2.69-.93,4.14-.41.62.22,1.15.08,1.71-.31.46-.32.99-.9,1.61-.03.23.33.67-.1,1-.32.61-.42,1.26-.74,1.68.27.06.14.27.37.34.35,1.68-.61,3.07,1.11,4.72.61.61-.18.87.57,1.71.38,1.46-.32,2.99-.59,4.66-.15,1.53.41,3.35.92,4.87.55,1.56-.38,2.74-.8,4.23.27.44.32,1.48.41,2.18.8.42.23.99.41.13.93-.37.22-.02.62.31.78,1.22.59,1.12,1.34.85,2.61-.36,1.74-1.47,2.92-2.37,4.23-.66.96-1.92,1.43-2.89,2.17-.83.63-1.48,1.64-2.78,1.63-.52,0-.96.65-1.16,1.16-.48,1.24-1.67,1.83-2.43,2.79-.73.93-1.71.82-2.71.48-.49-.17-.96-.34-.74.54.19.77-.18,1.35-.79,1.79-.5.36-.87.79-.6,1.43.24.58.79.83,1.36.87,1.27.09,2.43.6,3.59,1.02.75.27,1.41.52,1.98-.23.1-.13.25-.15.22-.07-.31,1.01,1.15.04,1.02.97-.12.87-.41,1.71-.82,2.4-.42.7-.05.69.35.84.08.03.18.04.26.03,2.2-.41,4.27.48,6.41.63.29.02.66.13.83.34.91,1.1,2.1.54,3.17.57.62.01,2.44.88,2.62,1.51.03.12-.01.32.06.38.64.49,1.23.96,1.2,1.91,0,.19.46.07.69-.05.63-.33,1.26-.67,1.99-1.06-.11.88-.82.83-1.25,1.1-.63.39-.66.85-.03,1.17.78.4,1.46.88,2.41,1.06,1.92.37,3.51,1.51,4.44,3.35.66,1.32,2.06.49,3,1.04.3.17.87-.36,1.02.19.12.44-.49.53-.73.81-.42.48-1.74.55-.82,1.7.18.23-.14.35-.33.45-1,.52-2.03,1.07-3.17,1.04-.8-.02-1.25.51-1.87.77-.23.1-.47.31-.32.62.14.31.46.5.75.28.52-.41.74-.14,1.17.22.67.56,1.46.24,2.21-.06.75-.29,1.67-1.14,2.16.35.93-.28,1.79,1,2.74.12.07-.07.03-.26.21-.05.24.28.42,1.35.91.09.09-.23.49.27.53.52.14.89.21,1.8.31,2.7.03.29-.07.64-.28.69-1.24.33-1.58,1.69-2.55,2.25-1.16.67-2.36,1.24-3.67,1.69-1.72.59-3.15.66-4.88.38-2.11-.34-4.29-.03-6.42.43-.47.1-.46.64-.95.62-.03-1.13-.64-1.41-1.67-1.16-1.27.31-2.41,1.06-3.57,1.37-1.02.28-2.05.74-3.13.87-.21.03-.45-.24-.71-.08.53,1.25,1.71,2.03,2.87,1.81,1.59-.31,3.19-.17,4.78-.26.25-.01.53.11.45.33-.66,1.74.85,1.25,1.69,1.58-1.33,1.66-2.72,2.84-4.85,3.59-2.48.88-5.09.09-7.5,1.19-.5.23-1.61-.48-2.65-.31-2.76.47-5.53.95-8.33,1.28-1.98.23-4.39-.26-6.15,1.48-.27.27-1.09-.04-1.65-.02-2.31.09-4.61.17-6.92.31-.52.03-1.35-.07-.78,1.01.55,1.03-.54,1.69-1.06,1.71-1.46.04-2.43,1.04-3.67,1.45-.51.17-1.1.41-1.45-.04-.32-.41.24-.76.48-1.1.21-.29.45-.57.29-.94-.17-.38-.55-.13-.81-.22-1.26-.4-2.64.25-3.9-.55-.55-.35-1.59.04-1.95.31-1.73,1.3-3.52.47-5.28.47-.96,0-1.91,0-2.79.43-.3.15-.57.21-.87.13-2.47-.69-2.83-.57-4.31,1.45-.24.33-.52.73-.93.59-1.25-.42-2.32.29-3.48.44-.5.06-.9.08-1.36-.15-.57-.29-1.35-.38-1.76-.05-1.5,1.19-3.2,1.12-4.93,1.14-1.25.02-2.44.59-3.76.2-.8-.24-1.61-.07-2.39.62-.51.45-1.56.71-2.33-.04-.06-.06-.15-.14-.22-.13-2.6.4-5.21-.64-7.8,0-2.75.67-5.45,0-8.18-.11-.45-.02-1.04-.33-.93-.72.15-.53.58-1.08,1.16-1.31.57-.22,1.16-.36,1.64-.78.22-.19.6-.33.39-.7-.17-.29-.56-.32-.83-.2-1.53.66-3,1.47-3.99,2.83-.39.54-.71.73-1.35.73-1.18,0-2.42-.26-3.51.54-.38.28-.83-.08-1.25-.19-2.06-.52-4.12-1.66-6.18.02-.21.17-.52.17-.73-.03-.26-.25.1-.34.17-.51.2-.44-.74-1.09-1.43-.99-.06,0-2.78,1.31-2.84,1.34-.87.4-1.68,1.39-2.7.26-.27-.3-.56,0-.84.06-.99.23-2.01.83-2.89-.26-.06-.07-.27-.11-.36-.07-1.14.62-2.3.48-3.52.27-1.33-.23-2.67-.07-4,.25-.92.22-1.93-.5-2.63-.34-1.6.37-3.11-.21-4.66.03-1.13.18-2.29.01-3.3.81-.6.47-1.43-.1-1.55-.48-.15-.45-1.01-1.11-.07-1.67.13-.08.32-.33.29-.4-.8-1.66,1.04-1.46,1.45-1.57.86-.22.94-.87,1.2-1.36.2-.38.04-.94-.66-.95-1.86,0-3.75.19-5.56-.12-2.14-.37-4.22-.31-6.36-.19-.83.05-1.77-.31-2.68-.29-1.13.03-2.16.28-2.71,1.42-.08-.87-.75-.71-1.32-.97-1.73-.79-3.49-.64-5.19-.37-1.53.24-3,.48-4.51.07-.21-.06-.43-.1-.64-.13-.4-.05-.92-.06-.94.43-.03.49.47.57.85.41.51-.2.86.15.98.43.47,1.08,1.25.85,2.01.53.36-.15.65-.15,1-.07,1.13.26,2.21.1,3.34-.17.85-.21,1.87-.96,2.67-.07.75.83,1.21.6,1.74-.13Zm57.08.18c-.76.12-1.11-.16-1.39-.68-.3-.57-.79-.89-1.44-1.19-1.5-.69-2.97.01-4.41-.02-1.03-.02-2.28.12-3.3.01-2.43-.26-4.81-.36-7.24.01-1.06.16-2.23.36-3.23.08-1.97-.54-3.82.92-5.74.15-.05-.02-.14.1-.22.12-1.49.44-3.05.36-4.56.38-.77.01-1.72.41-2.25.07-1-.65-1.94-.16-2.89-.24-.79-.07-1.07.31-.9,1.13.23,1.12.71,1.41,1.84,1.12,1.4-.36,2.77-.99,4.25-.75.89.15,1.73.12,2.59-.1,1.01-.26,1.99-.5,2.99.24.39.29,1.04.36,1.63.12.43-.18.95-.38,1.39-.11,1.34.83,2.77.79,4.25.55,1.1-.18,2.23.08,3.31,0,1.18-.09,2.33-.08,3.47.15.89.18,1.71.19,2.56-.17,1.49-.62,2.94-.47,4.32.35.22.13.4.42.66.35,1.4-.39,2.99-.23,4.3-1.58Zm-113.82-13.96c3.3.01,6.61-.59,9.89.36.73.21,1.67.02,2.44-.24.99-.33,1.95-.66,3-.53.52.06.99-.06,1.21-.55.19-.41.11-.97-.15-1.23-.35-.37-.86-.12-1.33.05-.7.26-1.33,1.1-1.9.99-2.43-.45-4.81.76-7.22.03-1.54-.46-3.2-.42-4.75-.47-1.64-.06-3.77-.78-5.06,1.22-.08.13-.32.17-.28.38.05.27.29.23.49.31,1.57.58,2.59-.83,3.92-1.07.11-.02.23,0,.35,0-.02.45-.67.31-.62.77Zm20.61-.43c1.61-.09,3.1.52,4.65.53.39,0,.83-.14,1.14-.08,1.12.22,1.97-.72,3.02-.61,1.51.16,3.1.14,4.5.64,1.26.46,1.97-.25,2.87-.63.24-.1.63-.67.1-.75-1.53-.24-3.13-1.37-4.63.14-.23.23-.6.56-.91.3-1.01-.85-2.16-.83-3.37-.74-1.56.12-3.13-.03-4.69.01-1.19.03-1.94.35-2.67,1.19Zm32.74-1.03c-1.24.1-2.17-.16-3.06-.8-.78-.56-1.79-.84-2.73-.58-1.53.42-3.06.8-4.62,1.08-.61.11-.9.71-.85,1.3.03.38.44.44.84.38,1.53-.24,3.07-.53,4.61-.65.87-.07,1.81-.36,2.66.09,1.58.83,1.82.8,3.16-.81Zm-61.23,10.36c-.77.07-1.18-.24-1.64-.45-1.35-.6-2.69.26-4.1-.04-.66-.14-1.62.56-2.56.35-.56-.13-.72.39-.93.75-.31.52.2.62.46.89.72.76,1.67.34,2.47.45,2.24.32,4.37-.12,6.3-1.96Zm217.49-21.69c1.07.12,2.01.23,2.93.47.68.18,1.71.55,1.98.47,1.42-.42,2.7-.29,4.04.15.42.14.8-.19.74-.67-.05-.37.11-1.12-.5-1.01-1.22.22-2.42-.41-3.6.02-.84.31-1.56.22-2.37-.15-1.13-.52-2.68-.17-3.23.72Zm-229.79,20.71c-1.5-.15-1.7,1.19-2.34,2-.23.29-.41.63-.05.91.38.28.78.18.92-.29.11-.35.2-.39.6-.41.77-.05,1.55-.28,2.29-.53.4-.13.9-.51.32-.93-.5-.36-1.16-.5-1.75-.74Z"/>
</svg>